REM DIRINDEX 1\2,1\3,1\4,1\5
REM DIRNAME cjc005,folder01,folder02,folder03,folder04
TITLE ""
FILE "P1Q_t_1531-1540.mp3" MP3
  TRACK 01 AUDIO
    TITLE "3:cjc005_5501"
    INDEX 01 00:00:00
  TRACK 02 AUDIO
    TITLE "0:"
    INDEX 01 00:01:01
  TRACK 03 AUDIO
    TITLE "4:cjc005_5502"
    INDEX 01 00:01:24
  TRACK 04 AUDIO
    TITLE "0:"
    INDEX 01 00:02:55
  TRACK 05 AUDIO
    TITLE "5:cjc005_5503"
    INDEX 01 00:03:02
  TRACK 06 AUDIO
    TITLE "0:"
    INDEX 01 00:05:71
  TRACK 07 AUDIO
    TITLE "3:cjc005_5504"
    INDEX 01 00:06:55
  TRACK 08 AUDIO
    TITLE "0:"
    INDEX 01 00:07:66
  TRACK 09 AUDIO
    TITLE "4:cjc005_5505"
    INDEX 01 00:08:17
  TRACK 10 AUDIO
    TITLE "0:"
    INDEX 01 00:09:34
  TRACK 11 AUDIO
    TITLE "5:cjc005_5506"
    INDEX 01 00:09:61
  TRACK 12 AUDIO
    TITLE "0:"
    INDEX 01 00:11:64
  TRACK 13 AUDIO
    TITLE "3:cjc005_5507"
    INDEX 01 00:12:42
  TRACK 14 AUDIO
    TITLE "0:"
    INDEX 01 00:13:55
  TRACK 15 AUDIO
    TITLE "4:cjc005_5508"
    INDEX 01 00:14:11
  TRACK 16 AUDIO
    TITLE "0:"
    INDEX 01 00:15:32
  TRACK 17 AUDIO
    TITLE "5:cjc005_5509"
    INDEX 01 00:15:54
  TRACK 18 AUDIO
    TITLE "0:"
    INDEX 01 00:19:67
  TRACK 19 AUDIO
    TITLE "3:cjc005_5510"
    INDEX 01 00:20:45
  TRACK 20 AUDIO
    TITLE "0:"
    INDEX 01 00:21:60
  TRACK 21 AUDIO
    TITLE "4:cjc005_5511"
    INDEX 01 00:22:13
  TRACK 22 AUDIO
    TITLE "0:"
    INDEX 01 00:23:34
  TRACK 23 AUDIO
    TITLE "5:cjc005_5512"
    INDEX 01 00:23:59
  TRACK 24 AUDIO
    TITLE "0:"
    INDEX 01 00:27:36
  TRACK 25 AUDIO
    TITLE "3:cjc005_5513"
    INDEX 01 00:28:10
  TRACK 26 AUDIO
    TITLE "0:"
    INDEX 01 00:29:33
  TRACK 27 AUDIO
    TITLE "4:cjc005_5514"
    INDEX 01 00:29:54
  TRACK 28 AUDIO
    TITLE "0:"
    INDEX 01 00:31:16
  TRACK 29 AUDIO
    TITLE "5:cjc005_5515"
    INDEX 01 00:31:39
  TRACK 30 AUDIO
    TITLE "0:"
    INDEX 01 00:34:20
  TRACK 31 AUDIO
    TITLE "3:cjc005_5516"
    INDEX 01 00:35:08
  TRACK 32 AUDIO
    TITLE "0:"
    INDEX 01 00:36:17
  TRACK 33 AUDIO
    TITLE "4:cjc005_5517"
    INDEX 01 00:36:46
  TRACK 34 AUDIO
    TITLE "0:"
    INDEX 01 00:38:08
  TRACK 35 AUDIO
    TITLE "5:cjc005_5518"
    INDEX 01 00:38:33
  TRACK 36 AUDIO
    TITLE "0:"
    INDEX 01 00:42:45
  TRACK 37 AUDIO
    TITLE "3:cjc005_5519"
    INDEX 01 00:43:17
  TRACK 38 AUDIO
    TITLE "0:"
    INDEX 01 00:44:50
  TRACK 39 AUDIO
    TITLE "4:cjc005_5520"
    INDEX 01 00:45:10
  TRACK 40 AUDIO
    TITLE "0:"
    INDEX 01 00:46:29
  TRACK 41 AUDIO
    TITLE "5:cjc005_5521"
    INDEX 01 00:46:60
  TRACK 42 AUDIO
    TITLE "0:"
    INDEX 01 00:50:46
  TRACK 43 AUDIO
    TITLE "3:cjc005_5522"
    INDEX 01 00:51:28
  TRACK 44 AUDIO
    TITLE "0:"
    INDEX 01 00:52:39
  TRACK 45 AUDIO
    TITLE "4:cjc005_5523"
    INDEX 01 00:52:67
  TRACK 46 AUDIO
    TITLE "0:"
    INDEX 01 00:54:21
  TRACK 47 AUDIO
    TITLE "5:cjc005_5524"
    INDEX 01 00:54:46
  TRACK 48 AUDIO
    TITLE "0:"
    INDEX 01 00:58:73
  TRACK 49 AUDIO
    TITLE "3:cjc005_5525"
    INDEX 01 00:59:49
  TRACK 50 AUDIO
    TITLE "0:"
    INDEX 01 01:01:09
  TRACK 51 AUDIO
    TITLE "4:cjc005_5526"
    INDEX 01 01:01:33
  TRACK 52 AUDIO
    TITLE "0:"
    INDEX 01 01:02:55
  TRACK 53 AUDIO
    TITLE "5:cjc005_5527"
    INDEX 01 01:03:02
  TRACK 54 AUDIO
    TITLE "0:"
    INDEX 01 01:06:42
  TRACK 55 AUDIO
    TITLE "3:cjc005_5528"
    INDEX 01 01:07:14
  TRACK 56 AUDIO
    TITLE "0:"
    INDEX 01 01:08:36
  TRACK 57 AUDIO
    TITLE "4:cjc005_5529"
    INDEX 01 01:08:64
  TRACK 58 AUDIO
    TITLE "0:"
    INDEX 01 01:10:18
  TRACK 59 AUDIO
    TITLE "5:cjc005_5530"
    INDEX 01 01:10:43
  TRACK 60 AUDIO
    TITLE "0:"
    INDEX 01 01:14:19
